<?xml version="1.0" standalone="no"?>
<!DOCTYPE svg PUBLIC "-//W3C//DTD SVG 20010904//EN"
 "http://www.w3.org/TR/2001/REC-SVG-20010904/DTD/svg10.dtd">
<svg version="1.0" xmlns="http://www.w3.org/2000/svg"
 width="360.000000pt" height="360.000000pt" viewBox="0 0 360.000000 360.000000"
 preserveAspectRatio="xMidYMid meet">
<metadata>
Created by potrace 1.11, written by Peter Selinger 2001-2013
</metadata>
<g transform="translate(0.000000,360.000000) scale(0.100000,-0.100000)"
fill="#000000" stroke="none">
<path d="M1617 3581 c-3 -11 -17 -22 -36 -26 -17 -4 -31 -11 -31 -16 0 -5 -16
-17 -36 -27 -32 -15 -112 -84 -113 -98 -1 -14 -33 -64 -41 -64 -6 0 -10 -5
-10 -12 0 -6 -9 -30 -19 -52 -29 -62 -37 -104 -35 -186 2 -101 11 -159 28
-176 8 -7 17 -27 21 -44 4 -16 11 -30 16 -30 5 0 17 -17 28 -37 24 -47 83
-109 113 -119 13 -4 30 -15 39 -25 9 -11 19 -19 23 -19 3 0 25 -9 49 -19 58
-26 92 -34 167 -36 85 -3 139 -11 175 -26 34 -14 46 -17 98 -23 35 -5 97 -34
97 -46 0 -3 9 -6 20 -7 11 -1 29 -11 42 -22 12 -12 28 -21 35 -21 7 0 13 -5
13 -12 0 -6 3 -8 6 -5 4 3 15 -5 26 -18 10 -13 27 -27 38 -30 11 -4 20 -12 20
-20 0 -8 9 -17 20 -20 11 -3 20 -13 20 -20 0 -8 10 -21 23 -30 12 -8 22 -19
22 -23 1 -13 28 -57 40 -64 6 -4 17 -25 25 -48 7 -22 16 -40 21 -40 9 0 18
-25 25 -69 3 -20 11 -56 19 -81 35 -112 35 -235 -1 -341 -8 -26 -16 -62 -18
-81 -4 -40 -22 -78 -37 -78 -6 0 -8 -4 -4 -9 3 -5 1 -12 -5 -16 -6 -4 -8 -10
-6 -14 3 -4 -2 -17 -12 -27 -9 -11 -25 -34 -35 -51 -17 -32 -79 -106 -106
-127 -7 -6 -27 -23 -43 -39 -16 -15 -36 -27 -44 -27 -8 0 -14 -4 -14 -10 0 -5
-5 -10 -11 -10 -7 0 -17 -7 -23 -15 -6 -8 -21 -17 -33 -19 -12 -3 -35 -14 -51
-26 -16 -12 -46 -24 -67 -26 -21 -2 -59 -10 -85 -19 -75 -25 -190 -34 -250
-20 -14 3 -34 7 -45 9 -11 1 -36 8 -55 14 -19 7 -48 14 -65 16 -55 9 -65 12
-88 32 -12 10 -31 20 -41 22 -10 2 -27 12 -38 22 -11 10 -33 24 -48 30 -15 6
-30 20 -33 31 -3 11 -9 19 -14 18 -21 -4 -32 2 -38 20 -3 11 -15 23 -26 26
-10 4 -19 13 -19 20 0 8 -10 21 -22 30 -13 8 -23 19 -23 23 -1 13 -28 57 -40
64 -6 4 -17 25 -25 48 -7 22 -16 40 -21 40 -9 0 -20 27 -25 65 -6 46 -11 68
-24 100 -13 32 -16 54 -24 175 -7 97 -11 117 -36 165 -11 21 -20 45 -20 52 0
7 -8 17 -18 22 -10 5 -24 25 -32 45 -7 20 -20 36 -27 36 -7 0 -13 6 -13 13 0
12 -59 57 -76 57 -5 0 -16 9 -24 20 -8 11 -19 20 -24 20 -5 0 -28 9 -50 20
-58 27 -110 36 -196 34 -90 -2 -137 -10 -167 -30 -12 -7 -28 -14 -35 -14 -7 0
-25 -11 -39 -24 -14 -13 -34 -26 -45 -30 -30 -10 -92 -73 -112 -114 -11 -22
-24 -36 -33 -34 -8 2 -11 0 -7 -3 4 -4 1 -20 -7 -35 -8 -15 -11 -31 -7 -35 4
-4 -3 -6 -14 -3 l-22 6 -1 -268 c-2 -243 0 -269 16 -285 18 -19 21 -27 28 -88
3 -21 9 -47 15 -56 5 -10 6 -22 2 -26 -4 -3 -1 -5 7 -3 14 3 18 -11 23 -72 2
-19 6 -37 9 -40 7 -7 49 -94 49 -104 0 -4 12 -23 26 -42 15 -19 23 -34 19 -34
-4 0 -2 -7 5 -15 7 -8 10 -15 6 -15 -3 0 3 -9 14 -20 11 -11 23 -34 27 -50 3
-17 14 -32 25 -36 11 -3 17 -12 15 -19 -3 -7 13 -34 35 -61 41 -50 48 -58 93
-107 14 -15 23 -27 20 -27 -5 0 14 -20 88 -97 15 -15 41 -39 58 -53 17 -14 42
-36 57 -50 14 -14 29 -25 32 -25 3 0 17 -11 31 -25 60 -56 90 -80 103 -80 7 0
20 -7 27 -16 11 -13 58 -38 67 -34 1 0 12 -9 24 -20 12 -11 28 -20 35 -20 7 0
32 -14 55 -30 22 -17 48 -30 55 -30 14 0 71 -28 83 -40 3 -3 21 -6 40 -7 52
-3 82 -12 75 -24 -4 -5 -3 -9 2 -8 4 1 10 0 13 -1 12 -4 103 -20 129 -22 8 -1
16 -9 18 -19 5 -17 29 -18 363 -18 343 -1 358 0 380 19 13 11 28 20 34 21 65
5 96 12 131 31 26 14 103 31 128 29 4 -1 16 8 26 18 10 10 32 22 49 25 16 4
38 15 48 24 11 10 35 24 54 32 19 8 44 22 54 32 10 9 23 15 27 12 5 -2 17 4
27 14 10 10 31 23 47 30 17 7 54 34 83 60 29 26 66 58 82 72 115 95 161 140
155 151 -6 8 8 13 28 10 4 0 6 3 5 7 -4 11 45 73 105 135 26 27 47 54 47 59 0
12 39 70 55 80 5 4 7 8 2 8 -11 0 22 60 33 60 6 0 9 3 9 8 -4 21 3 40 21 60
11 12 20 26 20 32 0 5 5 10 10 10 6 0 9 3 9 8 -4 22 3 44 19 60 9 10 18 27 20
37 11 76 16 95 34 134 19 38 23 60 30 130 1 8 9 16 19 18 17 5 18 26 18 364 0
323 -1 360 -16 375 -18 18 -20 25 -29 88 -3 22 -13 53 -22 70 -19 37 -23 51
-25 94 -1 17 -5 32 -9 32 -5 0 -8 9 -8 20 0 11 -4 20 -9 20 -9 0 -22 27 -27
57 -1 6 -14 28 -29 47 -15 20 -24 36 -21 36 4 0 -1 14 -11 30 -9 17 -21 30
-26 30 -4 0 -5 5 -2 10 3 6 1 10 -4 10 -6 0 -10 3 -9 8 4 13 -13 52 -23 52 -5
0 -15 15 -23 34 -8 19 -24 39 -35 46 -12 6 -21 16 -21 24 0 7 -10 22 -22 33
-13 11 -34 35 -48 52 -32 42 -75 90 -106 121 -57 56 -89 85 -96 88 -8 2 -44
32 -141 118 -15 13 -33 24 -40 24 -8 0 -24 11 -37 25 -12 13 -26 22 -31 20 -4
-3 -10 -1 -14 5 -4 6 -11 8 -16 5 -5 -4 -9 -2 -9 2 0 5 -13 17 -30 26 -16 10
-30 15 -30 12 0 -4 -19 7 -42 24 -23 17 -48 31 -56 31 -8 0 -29 9 -46 19 -17
11 -54 23 -81 26 -28 4 -61 14 -75 23 -14 9 -32 17 -40 19 -8 1 -28 5 -45 8
-61 9 -67 12 -76 27 -8 14 -43 16 -278 17 -255 1 -269 0 -274 -18z"/>
</g>
</svg>
